M48
; DRILL file {KiCad 5.1.8+dfsg1-1~bpo10+1} date Wed Dec  9 03:07:22 2020
; FORMAT={2:4/ absolute / inch / suppress leading zeros}
; #@! TF.CreationDate,2020-12-09T03:07:22+08:00
; #@! TF.GenerationSoftware,Kicad,Pcbnew,5.1.8+dfsg1-1~bpo10+1
FMAT,2
INCH,TZ
T1C0.0157
T2C0.0236
T3C0.0276
T4C0.0295
T5C0.0315
T6C0.0335
T7C0.0394
T8C0.0433
%
G90
G05
T1
X43500Y-18750
X43500Y-19250
X43500Y-19750
X43500Y-20250
X43500Y-33750
X43500Y-34250
X43500Y-34750
X43500Y-35250
X43500Y-45500
X43750Y-21000
X43750Y-21500
X43750Y-22750
X43750Y-23250
X43750Y-23750
X43750Y-24250
X43750Y-25250
X43750Y-25750
X43750Y-26250
X43750Y-27250
X43750Y-27750
X43750Y-28250
X43750Y-29500
X43750Y-30000
X43750Y-30500
X43750Y-31000
X43750Y-31500
X44000Y-37250
X44000Y-37750
X44000Y-39750
X44000Y-45500
X44500Y-21000
X44500Y-23250
X44500Y-23750
X44500Y-25750
X44500Y-28000
X44500Y-29750
X44500Y-37250
X44500Y-37750
X44500Y-39750
X44500Y-45500
X45000Y-21000
X45000Y-23250
X45000Y-23750
X45000Y-25750
X45000Y-28000
X45000Y-29750
X45000Y-37250
X45000Y-45500
X45500Y-21000
X45500Y-21500
X45500Y-22750
X45500Y-23250
X45500Y-23750
X45500Y-24250
X45500Y-25250
X45500Y-25750
X45500Y-26250
X45500Y-26750
X45500Y-27250
X45500Y-28000
X45500Y-28500
X45500Y-29250
X45500Y-29750
X45500Y-45500
X46000Y-21000
X46000Y-21500
X46000Y-22750
X46000Y-23250
X46000Y-23750
X46000Y-24250
X46000Y-25250
X46000Y-25750
X46000Y-26250
X46000Y-26750
X46000Y-27250
X46000Y-28000
X46000Y-28500
X46000Y-29250
X46000Y-29750
X46000Y-45500
X46500Y-21000
X46500Y-21500
X46500Y-22750
X46500Y-23250
X46500Y-23750
X46500Y-24250
X46500Y-25250
X46500Y-25750
X46500Y-26250
X46500Y-26750
X46500Y-27250
X46500Y-28000
X46500Y-28500
X46500Y-29250
X46750Y-33250
X47000Y-30750
X47000Y-31250
X47000Y-31750
X47000Y-32250
X47250Y-33250
X47250Y-33750
X47250Y-39750
X47250Y-43500
X47250Y-44000
X47250Y-44500
X47250Y-45000
X47500Y-30750
X47500Y-31250
X47500Y-31750
X47500Y-32250
X47750Y-18500
X47750Y-19000
X47750Y-33250
X47750Y-33750
X47750Y-34250
X48000Y-30750
X48000Y-31250
X48000Y-31750
X48000Y-32250
X48000Y-39500
X48000Y-41750
X48000Y-42250
X48250Y-18500
X48250Y-38250
X48750Y-18500
X48750Y-38500
X48750Y-40500
X49250Y-18500
X49500Y-32750
X49500Y-33250
X49750Y-18500
X50000Y-30750
X50000Y-32250
X50000Y-32750
X50000Y-33250
X50250Y-18500
X50250Y-41500
X50250Y-42000
X50250Y-42500
X50250Y-43000
X50250Y-43500
X50250Y-44000
X50250Y-44500
X50500Y-32250
X50500Y-32750
X50500Y-33250
X50750Y-18500
X51000Y-32250
X51000Y-32750
X51000Y-33250
X51250Y-18500
X51500Y-32250
X51500Y-32750
X51500Y-33250
X51500Y-36250
X51500Y-36750
X51500Y-38000
X51500Y-38500
X51750Y-40500
X52000Y-36250
X52000Y-36750
X52000Y-38500
X52250Y-40500
X52250Y-41000
X52500Y-20000
X52500Y-20500
X52500Y-21000
X52500Y-21500
X52500Y-22000
X52500Y-22500
X52500Y-23000
X52500Y-36250
X52500Y-36750
X52500Y-38500
X52500Y-42000
X53000Y-36250
X53000Y-36750
X53000Y-38500
X53500Y-28250
X53500Y-36250
X53500Y-44750
X54000Y-28250
X54000Y-36250
X54000Y-44750
X54500Y-28250
X54500Y-36250
X54500Y-44750
X55000Y-28250
X55000Y-32250
X55000Y-36250
X55000Y-44750
X55500Y-28250
X55500Y-31750
X55500Y-32250
X55500Y-44750
X56000Y-28250
X56000Y-31750
X56000Y-32250
X56000Y-44750
X56500Y-28250
X56500Y-31750
X56500Y-32250
X56500Y-44750
X57000Y-28250
X57000Y-31750
X57000Y-32250
X57000Y-44750
X57500Y-28250
X57500Y-44750
X57750Y-32250
X57750Y-32750
X58000Y-28250
X58250Y-30500
X58250Y-32250
X58250Y-32750
X58500Y-28250
X58750Y-30000
X58750Y-30500
X58750Y-32250
X58750Y-32750
X59000Y-28250
X59250Y-19250
X59250Y-32750
X59250Y-44750
X59500Y-28250
X59750Y-19250
X59750Y-32750
X59750Y-33250
X59750Y-44750
X60000Y-28250
X60250Y-19250
X60250Y-32750
X60250Y-33250
X60250Y-43750
X60250Y-44250
X60500Y-28250
X60750Y-19250
X60750Y-32750
X60750Y-33250
X61250Y-19250
X61250Y-32750
X61250Y-33250
X62250Y-31250
X62250Y-31750
X62250Y-32250
X62250Y-32750
X62250Y-33250
X62500Y-22250
X62500Y-22750
X62500Y-23250
X62750Y-25500
X62750Y-26000
X62750Y-26500
X62750Y-27000
X62750Y-27500
X62750Y-28000
X62750Y-28500
X62750Y-31250
X62750Y-31750
X62750Y-32250
X62750Y-32750
X62750Y-33250
X63000Y-23250
X63250Y-26500
X63250Y-28000
X63250Y-28500
X63250Y-31250
X63250Y-31750
X63250Y-32250
X63250Y-32750
X63250Y-33250
X63500Y-35250
X63750Y-26500
X63750Y-28000
X63750Y-28500
X63750Y-31250
X63750Y-31750
X63750Y-32250
X63750Y-32750
X63750Y-33250
X63750Y-41000
X63750Y-41500
X63750Y-42000
X63750Y-42500
X63750Y-43000
X63750Y-43500
X63750Y-44000
X63750Y-44500
X63750Y-45000
X64000Y-35250
X64000Y-35750
X64250Y-28000
X64250Y-28500
X64250Y-31250
X64250Y-31750
X64250Y-32250
X64250Y-32750
X64250Y-33250
X64250Y-41500
X64250Y-42000
X64250Y-42500
X64250Y-43000
X64250Y-43500
X64250Y-44000
X64250Y-44500
X64250Y-45000
X64500Y-35750
X64500Y-36250
X64750Y-28000
X64750Y-28500
X64750Y-31250
X64750Y-31750
X64750Y-32250
X64750Y-32750
X64750Y-33250
X65000Y-36250
X65000Y-36750
X65000Y-43750
X65000Y-44250
X65000Y-44750
X65250Y-28000
X65250Y-28500
X65500Y-36750
X65500Y-37250
X65500Y-43750
X65500Y-44250
X65500Y-44750
X65750Y-28000
X65750Y-28500
X66000Y-23250
X66000Y-43750
X66000Y-44250
X66000Y-44750
X66250Y-28000
X66250Y-28500
X66500Y-23250
X66500Y-43750
X66500Y-44250
X66500Y-44750
X67000Y-37000
X67000Y-37500
X67000Y-43750
X67000Y-44250
X67000Y-44750
X67500Y-23250
X67500Y-23750
X67500Y-24250
X67500Y-31250
X67500Y-31750
X67500Y-37000
X67500Y-37500
X67500Y-43750
X67500Y-44250
X67500Y-44750
X68000Y-31250
X68000Y-31750
X68000Y-37000
X68000Y-37500
X68000Y-43750
X68000Y-44250
X68000Y-44750
X68500Y-31250
X68500Y-31750
X68500Y-37000
X68500Y-37500
X68500Y-43750
X68500Y-44250
X68500Y-44750
X69000Y-18500
X69000Y-23250
X69000Y-31250
X69000Y-31750
X69000Y-37000
X69000Y-37500
X69000Y-43750
X69000Y-44250
X69000Y-44750
X69250Y-41250
X69250Y-41750
X69500Y-18500
X69500Y-23250
X69500Y-31250
X69500Y-31750
X69500Y-37000
X69500Y-37500
X69500Y-38000
X69500Y-38500
X69500Y-39000
X69500Y-39500
X69500Y-40000
X69500Y-43750
X69500Y-44250
X69500Y-44750
X69750Y-41250
X69750Y-41750
X70000Y-18500
X70000Y-23250
X70250Y-26500
X70250Y-41250
X70250Y-41750
X70500Y-18500
X70500Y-23250
X70750Y-26500
X70750Y-31250
X70750Y-31750
X70750Y-41250
X70750Y-41750
X71000Y-18500
X71000Y-23250
X71250Y-26500
X71250Y-31250
X71250Y-31750
X71250Y-40750
X71250Y-41250
X71250Y-41750
X71250Y-42250
X71250Y-42750
X71500Y-18500
X71750Y-31250
X71750Y-31750
X71750Y-40750
X71750Y-41250
X71750Y-41750
X71750Y-42250
X71750Y-42750
X72000Y-18500
X72250Y-31250
X72250Y-31750
X72250Y-40750
X72250Y-41250
X72250Y-41750
X72250Y-42250
X72250Y-42750
X72500Y-18500
X72750Y-31250
X72750Y-31750
X73000Y-18500
X73000Y-19000
T2
X65515Y-38450
X66933Y-38450
X68350Y-38450
X44000Y-44500
X58065Y-34100
X59483Y-34100
X60900Y-34100
X45900Y-44500
X69183Y-27600
X70600Y-27600
X72017Y-27600
X62600Y-34100
X64017Y-34100
X65435Y-34100
T3
X45850Y-31750
X48850Y-31750
X45850Y-30750
X48850Y-30750
X57250Y-20000
X57250Y-23000
X54250Y-20000
X54250Y-23000
X63700Y-27300
X66700Y-27300
X65150Y-41550
X68150Y-41550
X56250Y-20000
X56250Y-23000
X61200Y-40500
X61200Y-43500
X47800Y-37350
X50800Y-37350
X48700Y-41550
X51700Y-41550
X44100Y-33350
X44100Y-36350
X63000Y-24000
X66000Y-24000
X55250Y-20000
X55250Y-23000
X53250Y-20000
X53250Y-23000
X58250Y-20000
X58250Y-23000
X48700Y-43550
X51700Y-43550
X45100Y-33350
X45100Y-36350
X48700Y-44450
X51700Y-44450
X62100Y-40500
X62100Y-43500
X68250Y-24000
X71250Y-24000
X65150Y-40550
X68150Y-40550
X63000Y-40500
X63000Y-43500
X52750Y-33500
X55750Y-33500
X48700Y-42550
X51700Y-42550
T4
X48600Y-19600
X49100Y-19600
X49600Y-19600
T5
X60100Y-24800
X61084Y-24800
X59516Y-21500
X60500Y-21500
X61000Y-31000
X61000Y-31984
X55600Y-24800
X56584Y-24800
X67850Y-42750
X68834Y-42750
X49700Y-40450
X50684Y-40450
X59500Y-20250
X60484Y-20250
X53350Y-24800
X54334Y-24800
X66000Y-25450
X66984Y-25450
X63516Y-25450
X64500Y-25450
X50016Y-31500
X51000Y-31500
X44250Y-38800
X44250Y-41800
X45250Y-38800
X45250Y-41800
X46250Y-38800
X46250Y-41800
X47250Y-38800
X47250Y-41800
X53300Y-26200
X53300Y-29200
X54300Y-26200
X54300Y-29200
X55300Y-26200
X55300Y-29200
X56300Y-26200
X56300Y-29200
X57300Y-26200
X57300Y-29200
X58300Y-26200
X58300Y-29200
X59300Y-26200
X59300Y-29200
X60300Y-26200
X60300Y-29200
X65350Y-42750
X66334Y-42750
X63250Y-19500
X63250Y-20500
X63250Y-21500
X63250Y-22500
X66250Y-19500
X66250Y-20500
X66250Y-21500
X66250Y-22500
X49516Y-38450
X50500Y-38450
X71016Y-25450
X72000Y-25450
X68516Y-25450
X69500Y-25450
X62000Y-36831
X62000Y-38800
X59750Y-31000
X59750Y-31984
X59516Y-22750
X60500Y-22750
X57850Y-24800
X58834Y-24800
T6
X63593Y-30200
X65246Y-30200
X66900Y-30200
X68554Y-30200
X70207Y-30200
X71861Y-30200
T7
X44594Y-22100
X50500Y-22100
X44594Y-24800
X50500Y-24800
X46600Y-34600
X50537Y-34600
X53600Y-40400
X59506Y-40400
X53700Y-37600
X59606Y-37600
X44544Y-28900
X50450Y-28900
X52500Y-31500
X58406Y-31500
X53594Y-43100
X59500Y-43100
X71150Y-37850
X71150Y-43756
T8
X44600Y-26850
X48600Y-26850
X68000Y-20950
X72000Y-20950
X68000Y-22450
X72000Y-22450
X44439Y-19850
X46250Y-19850
X68000Y-19500
X72000Y-19500
T0
M30
